<?xml version="1.0" encoding="UTF-8"?>
<svg id="Layer_1" data-name="Layer 1" xmlns="http://www.w3.org/2000/svg" xmlns:serif="http://www.serif.com/" version="1.1" viewBox="0 0 400 400">
  <defs>
    <style>
      .cls-1 {
        stroke-width: 1.82px;
      }

      .cls-1, .cls-2 {
        fill: none;
        stroke: #000;
        stroke-linecap: round;
        stroke-linejoin: round;
      }

      .cls-2 {
        stroke-width: 1.8px;
      }

      .cls-3 {
        fill: #000;
        fill-rule: evenodd;
        stroke-width: 0px;
      }
    </style>
  </defs>
  <path class="cls-3" d="M18.56,167.9l.44.44c2.16,2.06,4.15,4.29,6.38,6.31,7.57,6.89,15.6,13.73,24.16,19.38,1.99,1.31,9.29,3.52,9.22,5.53,0,.17.27,1.38.22,1.41h-.07c-2.5.02-7.91-4.15-10.53-5.26-1.55-.66-3.25-.51-4.66-1.43-2.72-1.77-4.73-4.93-7.11-7.13-3.66-3.42-7.74-6.38-11.79-9.29-4.66-3.35-8.98-3.78-6.82-9.85.05-.1.56-.1.56-.1Z"/>
  <path class="cls-3" d="M93.01,198.88c13.3.68,13.27,11.01,21.25,17.59,3.15,2.6,7.33.32,10.7-.8,1.8-.61-.66.85-1.14,1.09-.97.51-2.04.78-2.98,1.29-1.21.66-2.57,1.14-3.95,1.33-8.44,1.04-11.99-16.55-22.01-15.31-1.09.15-1.84-5.22-1.84-5.22l-.02.02Z"/>
  <path class="cls-3" d="M133.36,213.83s.87.17.95.19c2.62.85,5.09,2.98,7.3,4.59,1.38.99,2.67,2.11,4.08,3.06,1.65,1.09,3.37,1.77,5.24,2.35.07,0,.53.1.56.17.29.85-1.53,1.02-2.09,1.72-.27.34-1.72-.97-1.97-1.14-1.8-1.16-3.83-1.94-5.6-3.11-2.98-1.97-5.36-4.39-8.71-5.75-1.53-.63-4.15-1.94-5.77-1.07-1.07.58,5.99-1.02,5.99-1.02h.02Z"/>
  <path class="cls-3" d="M194.72,219.7s.15.05.17.07c.49.22.95.44,1.41.66,1.19.51,2.38,1.04,3.54,1.63,2.89,1.41,5.6,3.13,8.52,4.46,1.04.49,2.11.95,3.15,1.48.49.24,1.82.27,1.5.7-.24.32-1.36.51-1.75.7-2.28,1.19-2.38.41-4.73-.68-2.6-1.24-8.95-5.12-11.82-4.76-.85.1,0-4.25,0-4.25v-.02Z"/>
  <path class="cls-3" d="M242.1,239.35c1.72-.41,3.83.24,5.6.07,3.83-.34,7.47-1.43,11.14-2.57,11.91-3.71,23.02-11.84,35.98-7.93,8.13,2.45,13.76,8.93,19.43,14.92,1.58,1.67,3.47,3.95,5.41,5.24.73.49,1.6.75,2.43,1.04.1.02,1.14.36.95.46-4.34,1.75-10.65-5.12-13.34-7.5-7.69-6.74-15.33-12.49-26.18-11.28-13.78,1.53-26.98,16.13-41.46,11.11-.68-.24.05-3.54.05-3.54v-.02Z"/>
  <path class="cls-3" d="M327.02,244.06s-.02-.1-.02-.15c0-.82.12-1.65.27-2.47.32-1.7.78-3.86,1.7-5.34,2.26-3.54,7.57-3.98,11.26-3.25,6.62,1.31,12.54,5.19,19.12,6.74,6.7,1.58,13.2-.95,17.35-6.33,1.21-1.58,4.17-6.57,5.75-7.35v1.72c0,1.14-.32,2.5-.7,3.59-1.09,3.15-1.82,6.62-3.28,9.68-.63,1.31-.99.9-2.35.46-1.14-.36-2.55-.34-3.74-.29-2.98.12-5.29,1.46-8.13,2.06-8.78,1.89-17.4-8.25-27.66-6.6-3.59.58-8.93,2.64-9.87,6.82-.02.15.27.7.27.7h.05Z"/>
  <path class="cls-1" d="M114.12,248.79c-41.41-13.99-53.66-24.23-54.67-24.98-20.93-15.74-43.45-29.12-42.64-50.25M125.04,251.39c-3.88-.78-7.08-1.63-10.92-2.6M235.87,261.21c-2.21-.15-56.91-3.66-59.01-3.8-1.53-.1-30.3-1.45-51.82-6.03M300.55,265.94c-15.99-1.21-48.69-3.66-64.68-4.73M16.78,173.55c1.65-15.45,11.96-33,24.07-37.14,33.99-11.69,85.76,11.4,120.14,17.57,26.01,4.68,52.16,8.71,78.61,9.9,32.36,1.48,65.82.15,97.77,6.38,29.33,5.73,50,22.15,45.39,54.47-5.85,40.9-42.89,44.42-76.04,41.73-2.28-.19-4.29-.34-6.19-.51"/>
  <path class="cls-1" d="M242.37,238.99c14.51,1.26,29.99-9.9,44.62-11.26,18.68-1.75,30.81,24.72,36.1,22.56,6.28-2.55,2.01-10.94,6.57-14.75,16.47-13.78,33.41,25.5,53.11-11.77M17.93,167.08c.87.85,1.72,1.7,2.57,2.55,7.16,7.18,14.68,14.17,22.95,20.09,4.32,3.08,9.27,6.19,14.78,8.27M92.94,198.64c1.46.12,2.98.41,4.63.95,10.46,3.45,12.96,16.38,17.98,17.69,6.09,1.6,10.94-4.66,17.74-3.4,6.91,1.29,11.23,8.66,18,10.21M195.18,219.97c6.38,2.38,12.03,5.48,18.07,8.52"/>
  <path class="cls-1" d="M17,175.76c.41,0,.22.8.39,1.19.44,1.04.95,2.06,1.46,3.08,1.67,3.28,4.22,8.83,7.88,10.34,3.61,1.48-.58-7.72,1.99-7.11,2.67.61,4.51,4.59,5.87,6.62,3.52,5.29,6.94,12.18,12.45,15.72,2.11,1.33-1.36-3.64-.58-3.81,2.6-.58,9.58,5.58,13.3,6.24"/>
  <path class="cls-1" d="M60.6,217.47c-.92-1.33-9.24-6.5-10.72-6.43-1.33.05.17,1.58-.34,2.04-1.29,1.14-4.22-2.26-4.93-2.98-3.66-3.86-7.28-7.74-11.04-11.5-2.43-2.43-4.95-2.33-3.81.82"/>
  <path class="cls-1" d="M109.71,241.29c1.02.7,2.06.75,3.25,1.09,1.41.41,9.34,2.06,9.9.07.41-1.46-2.45-2.6-3.4-3.01-3.95-1.75-8.35-2.45-12.3-4.08"/>
  <path class="cls-1" d="M104.1,228.24c.02.17,3.11.99,3.35,1.07,2.06.75,12.3,3.93,13.97,2.6,1.04-.82-5.36-5.34-3.64-6.96,2.06-1.94,14.58,4.61,17.69,4.34.39-.02,0-.56-.1-.68-.53-.8-4.59-4.97-3.03-5.94,3.06-1.97,11.89,3.59,15.75,3.76"/>
  <path class="cls-1" d="M197.78,241.68c-2.26-.82-3.95-1.72-3.95-2.74,0-1.09,3.54.29,3.49-.92-.05-1.12-4.66-5.07-2.96-5.7,2.3-.87,10.19,1.65,11.4-.53.75-1.38-4.08-3.15-4.8-3.47-2.33-.99-4.83-1.7-7.35-2.21M186.81,253.21c.36-.15-.1.12-.87-.05-1.55-.32-3.11-.63-4.61-1.04-.68-.19-2.4-.44-4.03-1.29M182.01,244.93c3.52.92,6.5,1.7,10.04,2.35"/>
  <path class="cls-1" d="M239.7,256.12c-.49.1.97.24,1.46.34,1.33.24,2.64.53,3.98.8,3.81.8,15.62,2.35,15.21-.07-.29-1.67-14.85-4.2-14.41-6.5.24-1.26,7.5,1.04,9.39-.61,1.31-1.14-3.57-3.54-3.2-4.03.46-.61,5.36-.61,6.09-.7,6.94-.99,14.22.41,21.08-.99,1.55-.32-4.37-4.1-.7-6.14,4.15-2.33,11.74-1.04,16.26-.75.46.02,5,.12,5.05.7,0,.1-.22.15-.27.17-.82.29-5.14.9-5.17,2.14,0,1.33,4,2.18,4.83,2.38,5.09,1.12,10.36.58,15.36,1.48"/>
  <path class="cls-1" d="M278.57,262.52c-1.48-1.58-7.5-2.91-6.6-6.11.7-2.45,13.85,0,16.76-.51,2.79-.49-3.66-4.08-1.48-4.93,3.66-1.41,16.21,2.01,20.23,2.57,1.43.19,5.31,0,6.38,1.14.82.85-3.76,2.11-4.05,2.18-1.99.53-4,.8-6.02,1.12-.19.02-3.25.36-2.72.97,2.72,3.06,15.45,2.96,19.53,3.13,1.5.07,6.11.41,6.24.27.05-.05-.75-.56-.82-.61-1.07-.75-1.99-2.06-1.92-3.42.1-1.89,3.42-.61,4.34-1.6.7-.75-2.86-3.57,2.38-4.12.58-.05,1.16-.07,1.75-.07,5.36.07,25.01,5.34,28.85,1.53,1.19-1.19-3.86-1.58-4.2-1.63-2.52-.24-13.8-1.29-14.95-3.95-.53-1.29,4.68-.82,4.9-1.77.29-1.41-4.34-3.03-5.29-3.37-.07-.02-.51-.15-.49-.29.19-1.12,5.94-.95,5.12-3.2-.87-2.45-15.77-1.43-12.81-2.47,1.14-.41,2.35-.56,3.54-.73,1.12-.15,2.26-.27,3.35-.58,1.55-.49,3.01-1.31,4.66-1.36"/>
  <path class="cls-1" d="M374.93,245.59c-.27,1.41-9.39.87-9.32-.12.07-.9,4.12-1.72,4.78-1.94,3.93-1.21,6.28-2.23,8.08-5.9"/>
  <path class="cls-1" d="M380.34,209.51s-.07-1.02-.1-1.09c-.7-3.01-1.87-5.56-3.25-8.27"/>
  <path class="cls-1" d="M374.3,196.8c-.19-.53-.8-1.02-1.14-1.48"/>
  <path class="cls-1" d="M369.43,191.63c.46.34-.68-.9-1.07-1.31-.75-.82-1.55-1.58-2.38-2.33-2.4-2.23-5.09-4-7.91-5.68"/>
  <path class="cls-1" d="M99.03,197.74c6.21,1.58,9.46,6.41,12.76,11.28"/>
  <path class="cls-1" d="M114.07,212.59s1.04.7,1.16.78c.97.66,2.14.82,3.28.8,3.35-.05,6.19-1.89,9.36-2.67"/>
  <path class="cls-1" d="M131.74,211.5c.39.27.92-.22,1.38-.17"/>
  <path class="cls-1" d="M140.76,214.51c1.09-.15,9.07,6.82,12.18,7.35"/>
  <path class="cls-1" d="M248.8,235.98s2.4-.41,2.57-.46c2.91-.63,5.6-1.7,8.37-2.77"/>
  <path class="cls-1" d="M267.09,230.13s.34-.15.39-.17"/>
  <path class="cls-1" d="M272.99,227.85c.56-.1,1.31-.58,1.8-.85,1.14-.63,2.33-1.07,3.59-1.43,3.93-1.14,7.98-1.82,12.06-1.04"/>
  <path class="cls-1" d="M51.48,192.02c.34.24-.66-.53-.99-.78-.7-.51-1.43-.99-2.14-1.48-2.16-1.5-4.42-2.91-6.48-4.56"/>
  <path class="cls-1" d="M37.84,181.85l-.15-.19"/>
  <path class="cls-1" d="M34.4,179.18c.24.49-.78-.78-1.16-1.14-.78-.73-1.58-1.46-2.38-2.18-2.47-2.28-5.05-4.51-7.21-7.11"/>
  <path class="cls-1" d="M159.54,157.44s1.26.24,1.33.24c1.58.36,3.18.51,4.78.78.15,0,.29.05.44.07,4.2.73,8.64,1.09,12.76,2.11"/>
  <path class="cls-1" d="M184.48,161.57c0-.22.46.12.68.07"/>
  <path class="cls-2" d="M100.77,233.62c-17.07-8.4-23.56-12.55-25.46-11.43-1.06.63,2.21,5,.83,5.13-1.98.19-9.76-6.24-10.53-6.88"/>
  <path class="cls-2" d="M63.21,209.75c10.33,4.36,13.49,5.15,19.62,7.54,2.53.98,5.56,2.24,9.81,4.12"/>
  <path class="cls-2" d="M97.27,224.67h0"/>
  <path class="cls-2" d="M90.53,198.76c-5.62.28-9.95.53-13.35.71-13.24.71-12.38.52-19.01-1.52"/>
  <path class="cls-2" d="M130.38,246.71c14.28,2.28,27.47,5.79,24.9-2.68-.25-.81-3.58-5.99,3.14-7.6,8.12-1.95,18.62,1.27,20.61,1.72"/>
  <path class="cls-2" d="M176.8,233.14c2.51.49,5.02.99,7.53,1.48"/>
  <path class="cls-2" d="M185.1,231.14h0"/>
  <path class="cls-2" d="M190.77,218.82c-15.3-.5-15.12,1.02-32.69,5.05"/>
  <path class="cls-2" d="M219.38,231.74c16.75,6.92,17.32,6.61,23.93,7.33"/>
  <path class="cls-2" d="M201.5,251.95c8.71,1.4,24.1,4.71,25.47-.62.22-.83-.03-5.91,1.34-7.47,1.97-2.24,8.49-.71,9.19-.64"/>
</svg>